<?xml version="1.0" standalone="no"?>
<!DOCTYPE svg PUBLIC "-//W3C//DTD SVG 20010904//EN"
 "http://www.w3.org/TR/2001/REC-SVG-20010904/DTD/svg10.dtd">
<svg version="1.0" xmlns="http://www.w3.org/2000/svg"
 width="128.000000pt" height="128.000000pt" viewBox="0 0 128.000000 128.000000"
 preserveAspectRatio="xMidYMid meet">
<metadata>
Created by potrace 1.14, written by Peter Selinger 2001-2017
</metadata>
<g transform="translate(0.000000,128.000000) scale(0.100000,-0.100000)"
fill="#000000" stroke="none">
<path d="M230 1153 c0 -29 -3 -33 -27 -34 -16 -1 -32 -1 -36 0 -5 1 -8 -9 -7
-21 4 -43 0 -48 -33 -48 l-34 0 1 -205 0 -205 33 0 c35 0 35 0 35 -65 0 -75
-1 -76 -25 -71 -13 2 -28 1 -34 -2 -6 -4 -10 -84 -9 -204 0 -170 2 -198 15
-202 9 -2 254 -3 546 -2 l530 1 0 202 c1 132 -3 204 -10 206 -5 2 -20 3 -32 2
-15 -1 -23 4 -24 14 0 9 -1 39 -2 68 l-2 52 35 3 35 3 1 203 0 202 -33 0 c-33
0 -40 12 -34 58 1 7 -4 12 -11 11 -47 -6 -58 1 -58 35 l0 33 -135 0 c-143 -1
-138 1 -138 -49 0 -19 -7 -21 -44 -18 -20 1 -23 -3 -23 -34 l0 -36 -70 0 -70
0 0 36 c0 33 -2 36 -25 32 -30 -6 -46 10 -40 40 5 26 12 25 -147 27 l-128 1 0
-33z"/>
</g>
</svg>
